<?xml version="1.0" encoding="utf-8"?>
<!-- Generator: Adobe Illustrator 25.0.1, SVG Export Plug-In . SVG Version: 6.00 Build 0)  -->
<svg version="1.1" id="Layer_1" xmlns="http://www.w3.org/2000/svg" xmlns:xlink="http://www.w3.org/1999/xlink" x="500px" y="500px"
	 viewBox="0 0 1920 1080" style="enable-background:new 0 0 1920 1080;" xml:space="preserve">
<style>
	.st0{fill:#1E1E1E;}
	.st1{fill:#FFFFFF;}
</style>
<g>
	<path class="st0" d="M863.9,777.7v92.6h-17.3v-77.7h-42v77.7h-17.2v-77.7h-17.8v-14.9h17.8v-9.5c0-24.2,10.1-40.8,34.9-40.8h5.5
		v16.3h-2.6c-16.5,0-20.8,10.1-20.6,22.2v11.9H863.9z M867.5,743.6c0,6.5-5.4,11.5-12.3,11.5c-6.5,0-12.1-5-12.1-11.5
		c0-6.5,5.5-11.5,12.1-11.5C862.1,732.1,867.5,737.1,867.5,743.6z"/>
	<path class="st0" d="M979.1,816.8v53.5h-17.2v-52.5c0-15.5-9.5-25.4-22.4-25.4s-28.4,7.7-28.4,27.8v50.2h-17.2v-92.6h17.2v14.1
		c5.5-11.3,20.6-16.5,30.7-16.5C964.8,775.3,979.3,790.8,979.1,816.8z"/>
	<path class="st0" d="M1080.8,777.7h17.3v92.6h-17.3v-16.5c-6.1,11.1-19,18.8-33.9,18.8c-24.2,0-45.4-20.4-45.4-48.8
		c0-27.4,20-48.6,46.2-48.6c13.9,0,27,5.9,33.1,16.9V777.7z M1080.8,823.9c0-19-16.1-32.3-31.5-32.3c-16.9,0-30.3,14.9-30.3,32.3
		c0,17.6,13.5,32.5,30.5,32.5C1065.9,856.4,1080.8,842.7,1080.8,823.9z"/>
	<path class="st0" d="M1213.4,816.8v53.5h-17.2v-52.5c0-15.5-9.5-25.4-22.4-25.4c-12.9,0-28.4,7.7-28.4,27.8v50.2h-17.2v-92.6h17.2
		v14.1c5.5-11.3,20.6-16.5,30.7-16.5C1199.1,775.3,1213.6,790.8,1213.4,816.8z"/>
	<path class="st0" d="M1235.6,823.9c0-29.3,23.2-48.6,49.8-48.6c14.5,0,27.2,5.7,35.3,14.7l-10.9,11.3c-5.8-5.9-14.1-9.7-23.8-9.7
		c-18.2,0-32.9,13.3-32.9,32.3s14.7,32.5,32.9,32.5c9.7,0,18-3.8,23.8-9.7l10.9,11.3c-8.1,9.1-20.8,14.7-35.3,14.7
		C1258.8,872.7,1235.6,853.2,1235.6,823.9z"/>
	<path class="st0" d="M1338.9,743.6c0-6.5,5.5-11.5,12.1-11.5c6.7,0,12.3,5,12.3,11.5c0,6.5-5.5,11.5-12.3,11.5
		C1344.4,755.1,1338.9,750.1,1338.9,743.6z M1342.4,870.3v-92.6h17.2v92.6H1342.4z"/>
	<path class="st0" d="M1462.6,777.7h17.2v92.6h-17.2v-16.5c-6.1,11.1-19,18.8-33.9,18.8c-24.2,0-45.4-20.4-45.4-48.8
		c0-27.4,20-48.6,46.2-48.6c13.9,0,27,5.9,33.1,16.9V777.7z M1462.6,823.9c0-19-16.1-32.3-31.5-32.3c-16.9,0-30.3,14.9-30.3,32.3
		c0,17.6,13.5,32.5,30.5,32.5C1447.7,856.4,1462.6,842.7,1462.6,823.9z"/>
	<path class="st0" d="M1509.9,870.3V727.3h17.3v142.9H1509.9z"/>
</g>
<g>
	<path class="st0" d="M716.3,374.3v73.6h-64.4v233.4h-97.3V447.9h-55.9v-73.6h55.9V264.5h97.3v109.8H716.3z"/>
</g>
<g>
	<path class="st0" d="M1003.6,375.6l-23,92.7c-19.1-11.2-34.2-11.8-44-11.8c-38.1,0-69.7,32.2-69.7,122.9v101.9h-97.3v-307h96v65.1
		c17.7-50.6,54.6-73,92-73C972,366.4,987.8,367.7,1003.6,375.6z"/>
</g>
<g>
	<path class="st0" d="M1430.8,681.3V207.3h97.3v473.9H1430.8z"/>
</g>
<g>
	<path class="st0" d="M1803.5,374.3H1908l-204.4,496H1600l90.4-225.8l-121-270.2h107.8l63.8,159.1L1803.5,374.3z"/>
</g>
<g>
	<polygon class="st0" points="1263.4,374.3 1263.4,521.4 1263.4,534 1263.4,628.7 1263.4,681.3 1360.6,681.3 1360.6,374.3 	"/>
</g>
<path class="st0" d="M1192.8,599.1c-25,0-53.2-17.7-53.2-65.1V374.3h-97.3v165.6c0,94,40.1,149.2,121.6,149.2h9.8
	c10.2,0,19.9-2.4,28.5-6.6c21.3-10.5,35.9-32.4,35.9-57.8v-22.7v-22.5C1226,594.2,1208.1,599.1,1192.8,599.1z"/>
<path class="st0" d="M182.6,633.1l-0.3,0.3L166.6,617l0,0l-51.5-54.2l8.6-8.2c0.1-0.1,0.2-0.3,0.3-0.4l11.2-10.6l6.1-5.8l0,0
	l119.8-113.2L217.1,378c-2.9-3.1-6.5-3.6-8.3-3.7c-1.9-0.1-5.4,0.3-8.5,3.2l-10.9,10.3l-18.8,17.8L16.9,550.8
	c-4.7,4.4-4.9,12.2-0.5,16.9l75.5,79.8l17.8,18.8l10.3,10.9c2.9,3.1,6.5,3.6,8.3,3.7c1.9,0.1,5.4-0.3,8.5-3.2l46.4-43.9L182.6,633.1
	z"/>
<g>
	<defs>
		<path id="SVGID_1_" d="M141.4,538.1l132.2-125l18.3-17.3l10.7-10.1c3-2.8,6.5-3.2,8.3-3.1c1.8,0.1,5.3,0.6,8.1,3.6l35.6,37.7
			L185.7,584.7L141.4,538.1z M419.8,492.9L377.4,448L182.6,633.4l14.5,15.3l17.3,18.3l10.1,10.7c2.8,3,6.3,3.5,8.1,3.6
			c1.8,0.1,5.3-0.3,8.3-3.1l178.5-168.8C424,505.1,424.2,497.5,419.8,492.9z"/>
	</defs>
	<use xlink:href="#SVGID_1_"  style="overflow:visible;fill:#A7D9C5;"/>
	<clipPath id="SVGID_2_">
		<use xlink:href="#SVGID_1_"  style="overflow:visible;"/>
	</clipPath>
</g>
<polygon class="st1" points="141.1,538 115.2,562.7 183.1,634.1 378,448.7 354.3,423.7 185.3,584.5 "/>
</svg>
